:SAMPLES-PER-SECOND 30
:FRAME-RANGE 1-2009
:FULLY-SPECIFIED
:DEGREES
879
root  53.0231 40.0149 -4.83947 2.78408 -58.0573 -1.1991
RightUpLeg  -12.3399 -12.9541 -4.73974
RightLeg  51.9964 -12.1152 -16.4199
RightFoot  -11.3251 -0.0868364 4.86542
RightToes  4.71047e-010 1.2921e-014 -6.02303e-014
Spine  6.42662 -1.47891 -5.21638
Spine1  0.859194 -2.29795 0.978579
HEad  7.93238 27.0089 -3.85614
LeftShoulder1  1.87482 -1.50568 -31.3884
LeftArm  17.204 -18.8537 -49.0157
LeftForeArm  43.3312 -65.7252 -20.6492
LeftHand  0.131038 2.48647 -5.93617
RightShoulder  6.2069 7.72181 48.4472
RightArm  21.2018 -3.3239 14.3087
RightForeArm  9.84199 8.46582 15.1428
RightHand  0.256588 -1.11747 7.20698
LeftUpLeg  -7.20998 10.5874 4.24198
LeftLeg  8.08309 7.39251 -3.63925
LeftFoot  -1.15841 0.230197 -2.50585
LeftToes  2.15783e-011 -7.56106e-012 -8.20802e-012
880
root  53.1534 40.0285 -4.99556 2.4728 -62.6008 -0.845209
RightUpLeg  -10.9901 -14.5686 -6.6724
RightLeg  48.5674 -12.1792 -14.6751
RightFoot  -11.4172 -0.074405 4.68238
RightToes  4.71047e-010 1.2921e-014 -6.02303e-014
Spine  5.95303 -1.50707 -5.32226
Spine1  0.835805 -2.2846 0.830942
HEad  7.73807 27.5076 -4.20995
LeftShoulder1  1.834 -1.41179 -31.2711
LeftArm  16.6784 -18.4722 -49.4368
LeftForeArm  43.4392 -65.4749 -20.3509
LeftHand  0.158875 1.8784 -5.70028
RightShoulder  6.02153 7.23417 49.1396
RightArm  26.2056 -3.90759 15.0432
RightForeArm  5.24164 12.7402 12.926
RightHand  0.256358 -1.07663 7.12508
LeftUpLeg  -6.38538 10.9205 4.36312
LeftLeg  7.17005 11.4599 -3.2787
LeftFoot  -0.822668 0.280988 -2.99921
LeftToes  2.15783e-011 -7.56106e-012 -8.20802e-012
881
root  53.253 40.0783 -5.18555 2.14552 -67.0562 -0.443015
RightUpLeg  -9.22766 -16.9477 -8.36289
RightLeg  43.0267 -12.7895 -12.7481
RightFoot  -11.2199 -0.0813762 4.89749
RightToes  4.71047e-010 1.2921e-014 -6.02303e-014
Spine  5.36468 -1.52266 -5.21776
Spine1  0.852584 -2.23668 0.881373
HEad  7.83568 27.3916 -4.47148
LeftShoulder1  1.80371 -1.32336 -31.3262
LeftArm  16.3141 -17.8886 -49.5517
LeftForeArm  42.8718 -65.3662 -20.3032
LeftHand  0.162953 1.74663 -5.59669
RightShoulder  5.83784 6.75563 49.8627
RightArm  29.4547 -4.23671 15.6068
RightForeArm  2.09724 15.4189 11.0566
RightHand  0.217742 -1.20153 6.28251
LeftUpLeg  -5.18106 11.2611 4.62719
LeftLeg  5.4625 15.3871 -3.34114
LeftFoot  -0.0989476 0.338409 -3.43273
LeftToes  2.15783e-011 -7.56106e-012 -8.20802e-012
882
root  53.3282 40.1581 -5.42816 2.1706 -71.3236 -0.246677
RightUpLeg  -7.31789 -21.1861 -9.64457
RightLeg  35.8586 -13.7653 -10.7034
RightFoot  -10.7477 -0.0989141 5.00002
RightToes  4.71047e-010 1.2921e-014 -6.02303e-014
Spine  4.63909 -1.62691 -4.77653
Spine1  0.864522 -2.23125 0.942651
HEad  8.10083 26.6263 -4.53399
LeftShoulder1  1.77777 -1.23783 -31.4528
LeftArm  16.1247 -17.1081 -49.3648
LeftForeArm  42.638 -65.3669 -20.3344
LeftHand  0.155374 1.61083 -5.13011
RightShoulder  5.78539 6.56095 50.3666
RightArm  31.4615 -4.81857 16.3067
RightForeArm  0.242357 17.0476 9.72937
RightHand  0.181248 -1.30644 5.41686
LeftUpLeg  -3.99038 11.38 4.94923
LeftLeg  3.29065 19.3236 -3.53936
LeftFoot  0.977148 0.414769 -3.8985
LeftToes  2.15783e-011 -7.56106e-012 -8.20802e-012
883
root  53.3861 40.2222 -5.76171 2.34765 -75.414 -0.181165
RightUpLeg  -5.27333 -28.116 -10.5308
RightLeg  28.0844 -15.2629 -8.87254
RightFoot  -10.3596 -0.113951 5.083
RightToes  4.71047e-010 1.2921e-014 -6.02303e-014
Spine  4.12304 -1.70588 -4.40956
Spine1  0.735251 -2.26262 1.26928
HEad  8.14129 25.8004 -4.71258
LeftShoulder1  1.77737 -1.21581 -31.6199
LeftArm  16.1571 -16.3048 -49.1841
LeftForeArm  41.9677 -64.8446 -19.8506
LeftHand  0.171954 1.36306 -5.25104
RightShoulder  5.83607 6.57918 50.7109
RightArm  31.9026 -5.24522 16.8903
RightForeArm  0.356016 17.3912 9.38726
RightHand  0.169276 -1.37421 5.17158
LeftUpLeg  -2.98411 11.6832 5.5255
LeftLeg  1.43828 22.8448 -3.98988
LeftFoot  1.988 0.488773 -4.28593
LeftToes  2.15783e-011 -7.56106e-012 -8.20802e-012
884
root  53.4132 40.2577 -6.19301 1.60048 -79.35 0.778307
RightUpLeg  -3.01212 -37.8708 -11.3459
RightLeg  20.2993 -15.0713 -6.27847
RightFoot  -10.1271 -0.121135 4.9362
RightToes  4.71047e-010 1.2921e-014 -6.02303e-014
Spine  3.52715 -1.74604 -4.26398
Spine1  0.92789 -2.29446 1.64507
HEad  8.21307 24.5679 -4.59743
LeftShoulder1  1.78908 -1.23013 -31.7539
LeftArm  16.0089 -15.5763 -49.0366
LeftForeArm  40.6878 -63.4349 -18.5876
LeftHand  0.18946 0.949082 -5.15289
RightShoulder  5.95318 6.71782 51.0207
RightArm  32.03 -5.28838 17.134
RightForeArm  1.16301 16.9764 9.73583
RightHand  0.159229 -1.31575 4.79724
LeftUpLeg  -2.06247 12.0207 6.1074
LeftLeg  -0.0371872 26.2048 -4.49152
LeftFoot  2.90451 0.588237 -4.84753
LeftToes  2.15783e-011 -7.56106e-012 -8.20802e-012
